<?xml version="1.0" encoding="UTF-8"?>
<svg width="13px" height="16px" viewBox="0 0 13 16" version="1.1" xmlns="http://www.w3.org/2000/svg" xmlns:xlink="http://www.w3.org/1999/xlink">
    <title>2AFB09D0-1B29-41DA-9FCD-B97C8BC0F737</title>
    <defs>
        <filter color-interpolation-filters="auto" id="filter-1">
            <feColorMatrix in="SourceGraphic" type="matrix" values="0 0 0 0 0.078431 0 0 0 0 0.239216 0 0 0 0 0.545098 0 0 0 1.000000 0"></feColorMatrix>
        </filter>
    </defs>
    <g id="Page-1" stroke="none" stroke-width="1" fill="none" fill-rule="evenodd">
        <g id="BRDP---1-hover-2" transform="translate(-1727.000000, -499.000000)">
            <g id="Group-15" transform="translate(1718.000000, 448.000000)">
                <g id="content-duplicate" transform="translate(9.000000, 51.000000)" filter="url(#filter-1)">
                    <g>
                        <path d="M6.15789474,10.9473684 L1.36842105,10.9473684 C0.612662974,10.9473684 0,10.3347054 0,9.57894737 L0,1.36842105 C0,0.612662974 0.612662974,0 1.36842105,0 L9.57894737,0 L9.57894737,1.36842105 L1.36842105,1.36842105 L1.36842105,9.57894737 L6.15789474,9.57894737 L6.15789474,8.21052632 L8.89473684,10.2631579 L6.15789474,12.3157895 L6.15789474,10.9473684 M11.6315789,13.6842105 L11.6315789,4.10526316 L4.10526316,4.10526316 L4.10526316,8.21052632 L2.73684211,8.21052632 L2.73684211,4.10526316 C2.73684211,3.34950508 3.34950508,2.73684211 4.10526316,2.73684211 L11.6315789,2.73684211 C12.387337,2.73684211 13,3.34950508 13,4.10526316 L13,13.6842105 C13,14.4399686 12.387337,15.0526316 11.6315789,15.0526316 L4.10526316,15.0526316 C3.34950508,15.0526316 2.73684211,14.4399686 2.73684211,13.6842105 L2.73684211,12.3157895 L4.10526316,12.3157895 L4.10526316,13.6842105 L11.6315789,13.6842105 Z" id="Shape" fill="#000000" fill-rule="nonzero"></path>
                    </g>
                </g>
            </g>
        </g>
    </g>
</svg>