<?xml version="1.0" encoding="UTF-8"?>
<svg width="10px" height="13px" viewBox="0 0 10 13" version="1.1" xmlns="http://www.w3.org/2000/svg" xmlns:xlink="http://www.w3.org/1999/xlink">
    <title>1C65F79A-D76B-44C4-9842-AE24830A0CDD</title>
    <defs>
        <filter color-interpolation-filters="auto" id="filter-1">
            <feColorMatrix in="SourceGraphic" type="matrix" values="0 0 0 0 1.000000 0 0 0 0 0.000000 0 0 0 0 0.000000 0 0 0 1.000000 0"></feColorMatrix>
        </filter>
    </defs>
    <g id="Page-1" stroke="none" stroke-width="1" fill="none" fill-rule="evenodd">
        <g id="BRDP---1-hover-2" transform="translate(-1730.000000, -572.000000)">
            <g id="Group-15" transform="translate(1718.000000, 448.000000)">
                <g id="delete-outline-(1)" transform="translate(12.000000, 123.000000)" filter="url(#filter-1)">
                    <g transform="translate(0.000000, 1.000000)">
                        <path d="M0.714285714,11.4285714 C0.714285714,12.2175496 1.35387893,12.8571429 2.14285714,12.8571429 L7.85714286,12.8571429 C8.64612107,12.8571429 9.28571429,12.2175496 9.28571429,11.4285714 L9.28571429,2.85714286 L0.714285714,2.85714286 L0.714285714,11.4285714 M2.14285714,4.28571429 L7.85714286,4.28571429 L7.85714286,11.4285714 L2.14285714,11.4285714 L2.14285714,4.28571429 M7.5,0.714285714 L6.78571429,0 L3.21428571,0 L2.5,0.714285714 L0,0.714285714 L0,2.14285714 L10,2.14285714 L10,0.714285714 L7.5,0.714285714 Z" id="Shape" fill="#000000" fill-rule="nonzero"></path>
                    </g>
                </g>
            </g>
        </g>
    </g>
</svg>