<?xml version="1.0" encoding="UTF-8"?>
<svg width="26px" height="22px" viewBox="0 0 26 22" version="1.1" xmlns="http://www.w3.org/2000/svg" xmlns:xlink="http://www.w3.org/1999/xlink">
    <title>Export-excel</title>
    <defs>
        <filter color-interpolation-filters="auto" id="filter-1">
            <feColorMatrix in="SourceGraphic" type="matrix" values="0 0 0 0 0.078431 0 0 0 0 0.239216 0 0 0 0 0.545098 0 0 0 1.000000 0"></feColorMatrix>
        </filter>
    </defs>
    <g id="Symbols" stroke="none" stroke-width="1" fill="none" fill-rule="evenodd">
        <g filter="url(#filter-1)" id="Export-excel">
            <g transform="translate(0.500125, 0.007803)">
                <path d="M13.0508152,2.93911701 L13.0508152,1.42108547e-14 L0,2.43700447 L0,19.6574393 L13.0508152,21.9200728 L13.0508152,19.0826292 L18.6601133,19.0826292 L17.4916818,17.6481858 L13.0508152,17.6481858 L13.0508152,16.098987 L14.4777691,16.098987 L14.4777691,14.6645437 L13.0508152,14.6645437 L13.0508152,13.174903 L14.4777691,13.174903 L14.4777691,11.7404596 L13.0508152,11.7404596 L13.0508152,10.2507616 L14.4777691,10.2507616 L14.4777691,8.81631823 L13.0508152,8.81631823 L13.0508152,7.32667752 L14.4777691,7.32667752 L14.4777691,5.89229156 L13.0508152,5.89229156 L13.0508152,4.37361772 L18.499875,3.99219663 L18.499875,2.99219663 L13.0508152,2.93911701 Z M1.43527851,18.4503839 L1.43527851,3.62822359 L11.6155941,1.7272419 L11.6155941,20.215323 L1.43527851,18.4503839 Z M18.930192,13.7447105 L20.5992717,15.7943999 L21.6499878,14.5039797 L25.2608884,10.0693874 L21.9950908,10.0693874 L21.9950908,5.79439993 L19.2035392,5.79439993 L19.2035392,10.0693874 L15.9369626,10.0693874 L18.930192,13.7447105 Z" id="Fill-1" fill="#000000"></path>
                <polygon id="Fill-2" fill="#000000" points="3.95129104 13.9921966 6.00002691 11.9434608 8.04876277 13.9921966 9 13.0409056 6.95131795 10.9921697 9 8.94348767 8.04876277 7.99219663 6.00002691 10.0408787 3.95129104 7.99219663 3 8.94348767 5.04873586 10.9921697 3 13.0409056"></polygon>
            </g>
        </g>
    </g>
</svg>