<?xml version="1.0" encoding="UTF-8"?>
<svg width="20px" height="20px" viewBox="0 0 20 20" version="1.1" xmlns="http://www.w3.org/2000/svg" xmlns:xlink="http://www.w3.org/1999/xlink">
    <title>Icon/Printer</title>
    <defs>
        <filter color-interpolation-filters="auto" id="filter-1">
            <feColorMatrix in="SourceGraphic" type="matrix" values="0 0 0 0 0.078431 0 0 0 0 0.239216 0 0 0 0 0.545098 0 0 0 1.000000 0"></feColorMatrix>
        </filter>
    </defs>
    <g id="Symbols" stroke="none" stroke-width="1" fill="none" fill-rule="evenodd">
        <g id="bx-printer" transform="translate(-453.000000, -12.000000)" filter="url(#filter-1)">
            <g transform="translate(395.500125, 12.000000)">
                <g id="Group" transform="translate(57.499875, 0.000000)" fill="#000000" fill-rule="nonzero">
                    <g id="Shape">
                        <path d="M17,5 L16,5 L16,0 L4,0 L4,5 L3,5 C1.346,5 0,6.346 0,8 L0,15 C0,16.103 0.897,17 2,17 L4,17 L4,20 L16,20 L16,17 L18,17 C19.103,17 20,16.103 20,15 L20,8 C20,6.346 18.654,5 17,5 Z M6,2 L14,2 L14,5 L6,5 L6,2 Z M14,18 L6,18 L6,14 L14,14 L14,18 Z M18,15 L16,15 L16,14 L16,12 L4,12 L4,14 L4,15 L2,15 L2,8 C2,7.449 2.449,7 3,7 L17,7 C17.552,7 18,7.449 18,8 L18,15 Z"></path>
                    </g>
                </g>
            </g>
        </g>
    </g>
</svg>