<?xml version="1.0" encoding="UTF-8"?>
<svg width="21px" height="21px" viewBox="0 0 21 21" version="1.1" xmlns="http://www.w3.org/2000/svg" xmlns:xlink="http://www.w3.org/1999/xlink">
    <title>Publish rocket</title>
    <g id="Symbols" stroke="none" stroke-width="1" fill="none" fill-rule="evenodd">
        <g id="Publish-rocket">
            <path d="M15.496,2 C14.071,2 12.118,2.256 10.899,3.475 C8.794,5.58 7.391,7.03 7.388,7.033 C7.148,7.28 6.795,7.387 6.465,7.316 C6.458,7.316 4.217,6.881 2.517,7.82 L12.211,17.514 C13.154,15.812 12.752,13.595 12.747,13.57 C12.682,13.242 12.784,12.903 13.02,12.667 L16.556,9.132 C18.452,7.236 18.072,3.634 17.827,2.203 C17.289,2.111 16.443,2 15.496,2 Z M15.142,7.718 C14.361,8.499 13.096,8.499 12.314,7.718 C11.533,6.936 11.533,5.671 12.314,4.89 C13.096,4.108 14.361,4.108 15.142,4.89 C15.924,5.671 15.924,6.936 15.142,7.718 Z" id="Shape"></path>
            <path d="M18.92,0.384 C18.857,0.368 17.364,0 15.496,0 C12.911,0 10.833,0.713 9.485,2.061 C7.997,3.549 6.857,4.712 6.31,5.273 C5.096,5.136 2.233,5.07 0.293,7.011 C0.105,7.198 0,7.452 0,7.718 C0,7.984 0.105,8.238 0.293,8.425 L11.606,19.738 C11.794,19.926 12.047,20.031 12.313,20.031 C12.579,20.031 12.833,19.926 13.02,19.738 C14.974,17.785 14.914,14.924 14.787,13.728 L17.971,10.545 C21.162,7.354 19.711,1.363 19.648,1.11 C19.559,0.753 19.278,0.473 18.92,0.384 Z M16.557,9.132 L13.021,12.667 C12.785,12.903 12.682,13.242 12.748,13.57 C12.753,13.595 13.155,15.812 12.212,17.514 L2.517,7.82 C4.217,6.882 6.458,7.316 6.465,7.316 C6.795,7.386 7.149,7.28 7.388,7.033 C7.391,7.03 8.794,5.58 10.9,3.474 C12.118,2.256 14.071,2 15.496,2 C16.443,2 17.289,2.111 17.828,2.203 C18.072,3.634 18.453,7.235 16.557,9.132 Z" id="Shape" fill="#FFFFFF" fill-rule="nonzero"></path>
            <circle id="Oval" fill="#FFFFFF" fill-rule="nonzero" cx="13.728" cy="6.304" r="2"></circle>
            <path d="M3,14 C1,15 1,19 1,19 C1,19 4,19 6,17 L3,14 Z" id="Path" fill="#FFFFFF" fill-rule="nonzero"></path>
        </g>
    </g>
</svg>