<?xml version="1.0" encoding="UTF-8"?>
<svg width="13px" height="12px" viewBox="0 0 13 12" version="1.1" xmlns="http://www.w3.org/2000/svg" xmlns:xlink="http://www.w3.org/1999/xlink">
    <title>72276C14-C0DF-452F-8BF4-0DB2CE160E2B</title>
    <g id="Page-1" stroke="none" stroke-width="1" fill="none" fill-rule="evenodd">
        <g id="BRDP---1-hover-2" transform="translate(-1729.000000, -537.000000)" fill="#143D8B" fill-rule="nonzero">
            <g id="Group-15" transform="translate(1718.000000, 448.000000)">
                <g id="Group-7-Copy-2" transform="translate(11.000000, 87.000000)">
                    <g id="table-split-cell" transform="translate(0.000000, 2.000000)">
                        <path d="M11.5555556,7.22222222 L13,7.22222222 L13,11.5555556 L0,11.5555556 L0,7.22222222 L1.44444444,7.22222222 L1.44444444,10.1111111 L11.5555556,10.1111111 L11.5555556,7.22222222 M0,0 L0,4.33333333 L1.44444444,4.33333333 L1.44444444,1.44444444 L11.5555556,1.44444444 L11.5555556,4.33333333 L13,4.33333333 L13,0 L0,0 M5.77777778,5.05555556 L5.77777778,6.5 L3.61111111,6.5 L3.61111111,7.94444444 L1.44444444,5.77777778 L3.61111111,3.61111111 L3.61111111,5.05555556 L5.77777778,5.05555556 M9.38888889,5.05555556 L9.38888889,3.61111111 L11.5555556,5.77777778 L9.38888889,7.94444444 L9.38888889,6.5 L7.22222222,6.5 L7.22222222,5.05555556 L9.38888889,5.05555556 Z" id="Shape"></path>
                    </g>
                </g>
            </g>
        </g>
    </g>
</svg>