<svg width="18" height="18" viewBox="0 0 18 18" fill="none" xmlns="http://www.w3.org/2000/svg">
<path fill-rule="evenodd" clip-rule="evenodd" d="M16 0H1.99C0.880001 0 0 0.899994 0 2V16C0 17.1 0.880001 18 1.99 18H16C17.1 18 18 17.1 18 16V2C18 0.899994 17.1 0 16 0ZM16 12H12.87C12.4 12 12.02 12.34 11.89 12.8C11.54 14.07 10.37 15 9 15C7.63 15 6.46 14.07 6.11 12.8C5.98 12.34 5.6 12 5.13 12H1.99V3C1.99 2.45001 2.44 2 2.99 2H15C15.55 2 16 2.45001 16 3V12ZM11 7H13L9.36 10.65C9.16 10.85 8.85 10.85 8.65 10.65L5 7H7V4H11V7Z" fill="black" fill-opacity="0.54"/>
</svg>
